HIERARCHY
ROOT Hips
{
	OFFSET 0.000000 89.005402 0.000000
	CHANNELS 6 Xposition Yposition Zposition Xrotation Yrotation Zrotation
	JOINT Spine
	{
		OFFSET 0.116900 10.681000 0.373400
		CHANNELS 3 Xrotation Yrotation Zrotation
		JOINT Spine1
		{
			OFFSET 0.000000 13.840401 0.053500
			CHANNELS 3 Xrotation Yrotation Zrotation
			JOINT Spine2
			{
				OFFSET 0.000000 14.712700 -0.366200
				CHANNELS 3 Xrotation Yrotation Zrotation
				JOINT Neck
				{
					OFFSET 0.000000 35.415497 -3.314200
					CHANNELS 3 Xrotation Yrotation Zrotation
					JOINT Head
					{
						OFFSET 0.000000 16.899200 1.218300
						CHANNELS 3 Xrotation Yrotation Zrotation
						JOINT HeadTop_End
						{
							OFFSET 0.000000 22.206207 2.192500
							CHANNELS 3 Xrotation Yrotation Zrotation
							End Site
							{
								OFFSET 0.000000 22.314178 0.000000
							}
						}
					}
				}
				JOINT LeftShoulder
				{
					OFFSET 12.896400 26.716293 -4.548400
					CHANNELS 3 Xrotation Yrotation Zrotation
					JOINT LeftArm
					{
						OFFSET 19.027000 -4.857010 -1.718400
						CHANNELS 3 Xrotation Yrotation Zrotation
						JOINT LeftForeArm
						{
							OFFSET 24.179897 0.000000 0.000000
							CHANNELS 3 Xrotation Yrotation Zrotation
							JOINT LeftHand
							{
								OFFSET 27.156403 0.000000 0.000000
								CHANNELS 3 Xrotation Yrotation Zrotation
								JOINT LeftHandIndex1
								{
									OFFSET 16.441200 0.000000 0.000000
									CHANNELS 3 Xrotation Yrotation Zrotation
									JOINT LeftHandIndex2
									{
										OFFSET 4.821899 0.000000 0.000000
										CHANNELS 3 Xrotation Yrotation Zrotation
										JOINT LeftHandIndex3
										{
											OFFSET 6.386497 0.000000 0.000000
											CHANNELS 3 Xrotation Yrotation Zrotation
											JOINT LeftHandIndex4
											{
												OFFSET 5.188988 0.000000 0.000000
												CHANNELS 3 Xrotation Yrotation Zrotation
												End Site
												{
													OFFSET -0.178703 5.185913 0.000177
												}
											}
										}
									}
								}
								JOINT LeftHandThumb1
								{
									OFFSET 6.534897 -5.032593 5.900300
									CHANNELS 3 Xrotation Yrotation Zrotation
									JOINT LeftHandThumb2
									{
										OFFSET 3.818176 -2.204422 2.204423
										CHANNELS 3 Xrotation Yrotation Zrotation
										JOINT LeftHandThumb3
										{
											OFFSET 3.252098 -1.877594 1.877601
											CHANNELS 3 Xrotation Yrotation Zrotation
											JOINT LeftHandThumb4
											{
												OFFSET 5.251778 -3.032120 3.032117
												CHANNELS 3 Xrotation Yrotation Zrotation
												End Site
												{
													OFFSET 0.000023 6.780014 0.000000
												}
											}
										}
									}
								}
							}
						}
					}
				}
				JOINT RightShoulder
				{
					OFFSET -12.896300 26.716293 -4.548400
					CHANNELS 3 Xrotation Yrotation Zrotation
					JOINT RightArm
					{
						OFFSET -19.027000 -4.857010 -1.718400
						CHANNELS 3 Xrotation Yrotation Zrotation
						JOINT RightForeArm
						{
							OFFSET -24.179897 0.000000 0.000000
							CHANNELS 3 Xrotation Yrotation Zrotation
							JOINT RightHand
							{
								OFFSET -27.156403 0.000000 0.000000
								CHANNELS 3 Xrotation Yrotation Zrotation
								JOINT RightHandThumb1
								{
									OFFSET -6.591202 -4.852203 5.988100
									CHANNELS 3 Xrotation Yrotation Zrotation
									JOINT RightHandThumb2
									{
										OFFSET -3.818176 -2.204422 2.204423
										CHANNELS 3 Xrotation Yrotation Zrotation
										JOINT RightHandThumb3
										{
											OFFSET -3.252098 -1.877594 1.877601
											CHANNELS 3 Xrotation Yrotation Zrotation
											JOINT RightHandThumb4
											{
												OFFSET -5.251778 -3.032120 3.032117
												CHANNELS 3 Xrotation Yrotation Zrotation
												End Site
												{
													OFFSET -0.000023 6.780014 0.000000
												}
											}
										}
									}
								}
								JOINT RightHandIndex1
								{
									OFFSET -16.029404 0.000000 0.000000
									CHANNELS 3 Xrotation Yrotation Zrotation
									JOINT RightHandIndex2
									{
										OFFSET -5.213303 0.000000 0.000000
										CHANNELS 3 Xrotation Yrotation Zrotation
										JOINT RightHandIndex3
										{
											OFFSET -6.386528 0.000000 0.000000
											CHANNELS 3 Xrotation Yrotation Zrotation
											JOINT RightHandIndex4
											{
												OFFSET -5.189026 0.000000 0.000000
												CHANNELS 3 Xrotation Yrotation Zrotation
												End Site
												{
													OFFSET 0.236702 5.183624 0.001972
												}
											}
										}
									}
								}
							}
						}
					}
				}
			}
		}
	}
	JOINT LeftUpLeg
	{
		OFFSET 14.073000 -7.904099 -1.463000
		CHANNELS 3 Xrotation Yrotation Zrotation
		JOINT LeftLeg
		{
			OFFSET -0.109806 -34.073280 4.093200
			CHANNELS 3 Xrotation Yrotation Zrotation
			JOINT LeftFoot
			{
				OFFSET 0.109806 -29.899420 -6.319000
				CHANNELS 3 Xrotation Yrotation Zrotation
				JOINT LeftToeBase
				{
					OFFSET 1.551100 -14.988700 20.535801
					CHANNELS 3 Xrotation Yrotation Zrotation
					JOINT LeftToe_End
					{
						OFFSET 0.221200 0.570800 13.248301
						CHANNELS 3 Xrotation Yrotation Zrotation
						End Site
						{
							OFFSET 0.000000 13.262435 0.000000
						}
					}
				}
			}
		}
	}
	JOINT RightUpLeg
	{
		OFFSET -13.839300 -7.904099 -1.463000
		CHANNELS 3 Xrotation Yrotation Zrotation
		JOINT RightLeg
		{
			OFFSET 0.109694 -34.073219 4.093300
			CHANNELS 3 Xrotation Yrotation Zrotation
			JOINT RightFoot
			{
				OFFSET -0.109694 -29.899384 -6.319200
				CHANNELS 3 Xrotation Yrotation Zrotation
				JOINT RightToeBase
				{
					OFFSET -1.551100 -14.988700 20.535801
					CHANNELS 3 Xrotation Yrotation Zrotation
					JOINT RightToe_End
					{
						OFFSET -0.221200 0.570900 13.248299
						CHANNELS 3 Xrotation Yrotation Zrotation
						End Site
						{
							OFFSET 0.000000 13.262440 0.000000
						}
					}
				}
			}
		}
	}
}
MOTION
Frames: 5
Frame Time: 0.033333
-0.134073 69.921684 -0.193852 9.553448 -14.047477 -0.362671 7.456786 5.300086 1.194284 0.916436 -1.934108 4.782843 -2.749880 -5.721617 -3.225287 14.414377 0.820492 2.172812 -15.623154 18.533047 -0.354742 0.000000 -0.000000 -0.000000 4.396774 -8.709439 -1.515056 -64.042866 -48.083207 -53.117370 0.000002 -52.101427 0.000001 -70.289087 3.232901 36.857692 -0.212819 3.933725 -36.747118 2.942141 5.078903 -60.144597 0.513767 2.401013 -24.152546 -0.000000 0.000001 0.000001 -14.557459 10.837979 12.229956 6.241469 -2.023655 7.467699 -3.996095 -8.212675 1.963428 0.000001 0.000001 -0.000000 2.222920 11.675151 1.617825 -105.705326 61.357345 94.965939 -0.000009 26.905500 0.000002 -48.192456 -5.854441 -24.931476 8.377137 -4.904134 11.022006 21.620199 -18.183883 -18.379214 -0.702879 -49.821220 -32.535152 0.000001 0.000001 0.000000 0.558929 -4.406578 25.436663 1.008166 -2.895739 38.384799 0.871284 -2.714257 35.588677 0.000000 -0.000000 0.000000 -42.581640 9.403574 5.224914 102.722405 5.659642 -2.228119 -22.306054 6.744697 7.648614 -26.207374 6.886554 -14.545468 -0.000002 0.000000 -0.000000 -27.225727 2.818173 11.845748 66.399964 -4.571677 -4.336823 -49.083898 -17.868403 -1.525135 -6.150056 -0.000001 -0.000000 -0.000000 0.000001 0.000000 
-0.203288 70.431900 9.602405 10.013545 -13.038650 0.939577 7.314109 5.107757 0.051612 0.806338 -2.047213 4.580885 -2.881025 -5.818085 -3.433789 14.660450 0.793075 2.168072 -15.932087 18.128982 0.025699 0.000001 -0.000000 -0.000000 4.614075 -10.121822 -1.020431 -62.609373 -47.595135 -50.871440 -0.000001 -52.869066 0.000002 -70.968903 3.717165 37.422651 -0.207438 3.932186 -36.621920 2.945654 5.080894 -60.184144 0.515313 2.404477 -24.189661 -0.000000 0.000000 -0.000003 -14.490260 10.936685 12.317653 6.241470 -2.023656 7.467696 -4.003558 -8.253234 1.969796 -0.000000 -0.000000 0.000000 2.222919 11.675150 1.617825 -104.768545 61.423167 93.782609 0.000006 27.452578 -0.000004 -48.764347 -6.325515 -25.290176 8.377137 -4.904135 11.022005 21.620195 -18.183883 -18.379211 -0.702874 -49.821223 -32.535152 0.000001 0.000001 0.000001 0.558931 -4.406578 25.436666 1.008166 -2.895739 38.384799 0.871284 -2.714258 35.588673 -0.000000 -0.000002 -0.000000 -56.435654 8.477031 4.222491 97.672040 5.523877 -1.368768 -25.090570 8.632380 6.644713 -8.646958 0.982932 -9.009598 0.000000 -0.000001 0.000000 -14.375400 1.661256 8.542939 60.383626 -5.587486 -6.192684 -53.487085 -18.360804 -1.207782 -13.010464 0.000004 -0.000004 -0.000001 0.000001 0.000000 
-0.257297 71.617767 19.337103 10.357680 -12.069928 2.016278 7.126493 4.961264 -0.960560 0.733149 -2.134993 4.428985 -2.969590 -5.892557 -3.591585 14.933700 0.752960 2.181214 -16.095134 17.728719 0.277263 0.000001 0.000000 -0.000000 4.868813 -11.645238 -0.515004 -60.743386 -46.794306 -48.854847 -0.000004 -53.632623 -0.000012 -71.262342 3.844081 37.813829 -0.204473 3.929908 -36.532042 2.948067 5.082269 -60.211451 0.516395 2.406888 -24.215432 -0.000001 -0.000000 -0.000002 -14.438082 11.013404 12.386113 6.241470 -2.023654 7.467698 -4.010128 -8.288885 1.975404 -0.000000 0.000002 0.000000 2.222917 11.675148 1.617825 -102.794764 61.635340 92.141103 0.000004 28.250175 -0.000000 -49.317948 -6.429404 -25.786324 8.377137 -4.904135 11.022003 21.620190 -18.183885 -18.379211 -0.702876 -49.821223 -32.535152 -0.000000 0.000001 -0.000000 0.558931 -4.406577 25.436666 1.008166 -2.895739 38.384799 0.871284 -2.714257 35.588670 -0.000000 -0.000001 -0.000000 -65.069286 6.795043 2.868060 84.891356 5.458712 -0.490214 -27.051722 9.521618 3.451953 -2.734382 -0.000005 0.000001 -0.000000 -0.000001 0.000000 -0.938940 -0.435179 5.056229 48.741825 -6.306296 -7.988260 -51.197752 -19.395043 1.950266 -21.243420 -0.000002 -0.000003 -0.000001 0.000001 0.000000 
-0.339072 73.291786 29.086216 10.394022 -11.151745 2.457740 6.861830 4.872126 -1.571475 0.752989 -2.155504 4.423061 -2.947747 -5.909935 -3.601705 15.213821 0.689698 2.263514 -15.977194 17.361361 0.278774 -0.000000 0.000000 -0.000000 5.172295 -13.367578 0.004654 -58.775274 -45.514581 -47.302379 -0.000007 -54.446778 -0.000014 -71.137001 3.903921 38.055461 -0.206300 3.925145 -36.499906 2.947647 5.082053 -60.206868 0.516205 2.406483 -24.211117 -0.000001 0.000001 0.000000 -14.421217 11.038067 12.409075 6.241469 -2.023657 7.467696 -4.013749 -8.308000 1.978359 0.000000 0.000000 0.000000 2.222918 11.675149 1.617825 -99.664297 61.938614 89.797556 -0.000005 29.465344 0.000008 -49.880926 -6.485905 -26.521392 8.377137 -4.904135 11.022004 21.620195 -18.183883 -18.379211 -0.702875 -49.821223 -32.535152 -0.000001 0.000000 0.000001 0.558931 -4.406577 25.436673 1.008164 -2.895738 38.384796 0.871284 -2.714256 35.588677 -0.000000 0.000001 -0.000000 -66.355930 4.464220 1.472158 63.585564 6.556462 0.686880 -26.093570 9.339513 -1.461687 -2.654772 0.000004 0.000002 0.000001 -0.000001 0.000000 11.417609 -3.219527 2.185315 35.103440 -7.189938 -9.911126 -40.584079 -20.319176 9.663837 -29.543283 -0.000000 -0.000003 0.000000 -0.000001 -0.000000 
-0.449026 75.034874 38.379501 9.990531 -10.121367 2.413749 6.591295 4.625022 -1.958811 0.866738 -2.146699 4.578739 -2.814596 -5.909523 -3.450711 15.438656 0.605995 2.444161 -15.657922 17.020809 0.090317 -0.000001 0.000000 0.000000 5.519022 -15.228395 0.551527 -56.942351 -43.850293 -46.139362 0.000021 -55.224525 0.000022 -70.788231 4.068196 38.090278 -0.213674 3.914451 -36.489681 2.943553 5.079686 -60.160415 0.514353 2.402330 -24.166703 0.000000 -0.000000 0.000001 -14.444682 11.003400 12.378974 6.241473 -2.023655 7.467699 -4.011662 -8.295379 1.976287 -0.000000 0.000000 0.000000 2.222919 11.675151 1.617825 -96.286058 62.237066 87.391116 0.000001 30.608311 -0.000006 -50.452722 -6.540999 -27.364530 8.377135 -4.904135 11.022005 21.620192 -18.183881 -18.379213 -0.702877 -49.821220 -32.535152 0.000002 -0.000001 -0.000000 0.558931 -4.406577 25.436671 1.008166 -2.895739 38.384796 0.871284 -2.714259 35.588677 -0.000000 0.000001 -0.000000 -63.711151 3.707341 -1.818085 40.352723 9.445572 2.581903 -18.093427 5.955935 4.100352 -4.019418 -0.000002 -0.000002 0.000000 0.000000 -0.000000 18.196000 -4.936352 0.046816 28.736914 -8.920530 -13.177037 -21.552501 -20.228638 22.927572 -33.716754 0.000001 0.000001 0.000000 0.000003 0.000001 
